<svg xmlns="http://www.w3.org/2000/svg" width="314" height="314" fill="none"><rect width="308.673" height="308.673" x="2.659" y="2.286" fill="#fff" stroke="#E0E0E0" stroke-width="4.573" rx="52.045"/><path fill="#474747" d="M116.638 291.662v-10.816h4.049c.917 0 1.705.149 2.364.448.659.288 1.164.711 1.514 1.267.361.546.541 1.21.541 1.993 0 .763-.18 1.422-.541 1.978-.35.546-.855.968-1.514 1.267-.659.299-1.447.448-2.364.448h-3.415l.51-.541v3.956h-1.144Zm1.144-3.863-.51-.556h3.384c1.082 0 1.901-.232 2.457-.695.566-.474.85-1.139.85-1.994 0-.865-.284-1.535-.85-2.009-.556-.473-1.375-.71-2.457-.71h-3.384l.51-.541v6.505Zm11.342 3.863v-10.816h4.048c.917 0 1.705.149 2.364.448.66.288 1.164.711 1.515 1.267.36.546.54 1.21.54 1.993 0 .763-.18 1.422-.54 1.978-.351.546-.855.968-1.515 1.267-.659.289-1.447.433-2.364.433h-3.415l.51-.526v3.956h-1.143Zm7.386 0-2.782-3.925h1.237l2.796 3.925h-1.251Zm-6.243-3.863-.51-.541h3.384c1.082 0 1.901-.237 2.457-.71.567-.474.85-1.139.85-1.994 0-.865-.283-1.535-.85-2.009-.556-.473-1.375-.71-2.457-.71h-3.384l.51-.541v6.505Zm12.588-2.117h5.717v.974h-5.717v-.974Zm.124 4.991h6.505v.989h-7.649v-10.816h7.417v.989h-6.273v8.838Zm10.738.989v-10.816h.943l4.944 8.437h-.494l4.898-8.437h.943v10.816h-1.098v-9.101h.263l-4.512 7.726h-.541l-4.543-7.726h.294v9.101h-1.097Zm16.303 0v-10.816h1.143v10.816h-1.143Zm7.228-5.98h5.717v.974h-5.717v-.974Zm.123 4.991h6.506v.989h-7.649v-10.816h7.417v.989h-6.274v8.838Zm10.739.989v-10.816h4.048c.917 0 1.705.149 2.364.448.659.288 1.164.711 1.514 1.267.361.546.541 1.21.541 1.993 0 .763-.18 1.422-.541 1.978-.35.546-.855.968-1.514 1.267-.659.289-1.447.433-2.364.433h-3.415l.51-.526v3.956h-1.143Zm7.386 0-2.782-3.925h1.236l2.797 3.925h-1.251Zm-6.243-3.863-.51-.541h3.384c1.082 0 1.901-.237 2.457-.71.566-.474.85-1.139.85-1.994 0-.865-.284-1.535-.85-2.009-.556-.473-1.375-.71-2.457-.71h-3.384l.51-.541v6.505Z"/><path fill="#4284F4" d="M200.782 130.776a53.06 53.06 0 0 0-1.027-9.234h-42.073v17.445h23.605a20.235 20.235 0 0 1-8.506 13.66v11.368h14.62a44.24 44.24 0 0 0 13.393-33.235l-.012-.004Z"/><path fill="#34A853" d="M157.55 174.909a43.015 43.015 0 0 0 29.836-10.9l-14.608-11.368a27.121 27.121 0 0 1-11.539 4.13 27.135 27.135 0 0 1-28.895-18.421h-15.02v11.708a45.005 45.005 0 0 0 40.226 24.851Z"/><path fill="#FBBC04" d="M132.344 138.337a27.096 27.096 0 0 1 0-17.173v-11.707h-15.039a45.252 45.252 0 0 0 0 40.551l15.02-11.708.019.037Z"/><path fill="#EA4335" d="M157.55 102.56a24.35 24.35 0 0 1 17.222 6.753l12.905-12.943a43.172 43.172 0 0 0-30.123-11.768 44.996 44.996 0 0 0-40.226 24.877l15.02 11.708a26.86 26.86 0 0 1 25.202-18.627Z"/><path fill="#5F6368" d="M61.042 221.664a10.881 10.881 0 0 1-4.037-4.037 11.539 11.539 0 0 1 0-11.361 10.983 10.983 0 0 1 9.59-5.499 11.724 11.724 0 0 1 4.437.835 8.956 8.956 0 0 1 3.422 2.361l-1.824 1.824a6.621 6.621 0 0 0-2.603-1.93 8.64 8.64 0 0 0-3.399-.672 8.568 8.568 0 0 0-4.233 1.087 8.313 8.313 0 0 0-3.139 3.078 9.512 9.512 0 0 0 0 9.182 8.266 8.266 0 0 0 3.154 3.078 9.228 9.228 0 0 0 7.818.419 8.095 8.095 0 0 0 2.496-1.779 6.615 6.615 0 0 0 1.254-2.02 8.89 8.89 0 0 0 .597-2.618h-7.932v-2.364h10.284a8.84 8.84 0 0 1 .152 1.556 11.929 11.929 0 0 1-.631 3.841 8.512 8.512 0 0 1-2.002 3.278 10.192 10.192 0 0 1-7.863 3.195 10.943 10.943 0 0 1-5.54-1.454Z"/><path fill="#5F6368" d="M66.606 223.39a11.247 11.247 0 0 1-5.692-1.511 11.189 11.189 0 0 1-4.135-4.112 11.802 11.802 0 0 1 0-11.625 11.223 11.223 0 0 1 9.82-5.631 12.04 12.04 0 0 1 4.531.853 9.233 9.233 0 0 1 3.52 2.429l.163.185-2.206 2.205-.181-.226a6.364 6.364 0 0 0-2.5-1.855 8.404 8.404 0 0 0-3.305-.649 8.307 8.307 0 0 0-4.105 1.057 8.1 8.1 0 0 0-3.044 2.98 9.26 9.26 0 0 0 0 8.917 8.08 8.08 0 0 0 3.055 2.984 8.975 8.975 0 0 0 7.584.407 7.87 7.87 0 0 0 2.413-1.722 6.32 6.32 0 0 0 1.205-1.937 8.596 8.596 0 0 0 .551-2.266h-7.878v-2.886h10.764l.041.216a9.18 9.18 0 0 1 .155 1.601c0 1.334-.216 2.66-.642 3.924a8.828 8.828 0 0 1-2.062 3.376 10.492 10.492 0 0 1-8.052 3.286Zm0-22.362a10.715 10.715 0 0 0-9.374 5.371 11.282 11.282 0 0 0 0 11.099 10.698 10.698 0 0 0 3.943 3.94 10.744 10.744 0 0 0 5.43 1.431 9.996 9.996 0 0 0 7.671-3.112 8.309 8.309 0 0 0 1.945-3.184 11.76 11.76 0 0 0 .616-3.758 8.333 8.333 0 0 0-.11-1.295h-9.82v1.839h7.932l-.022.283a9.276 9.276 0 0 1-.616 2.689 6.86 6.86 0 0 1-1.303 2.1 8.435 8.435 0 0 1-2.58 1.84 9.504 9.504 0 0 1-8.044-.423 8.576 8.576 0 0 1-3.252-3.177 9.767 9.767 0 0 1 0-9.442 8.622 8.622 0 0 1 3.252-3.18 9.126 9.126 0 0 1 7.867-.43 6.961 6.961 0 0 1 2.519 1.782l1.446-1.446a8.755 8.755 0 0 0-3.16-2.111 11.533 11.533 0 0 0-4.34-.816Zm16.784 21.021a7.483 7.483 0 0 1-2.795-2.93 8.876 8.876 0 0 1 0-8.192 7.521 7.521 0 0 1 2.795-2.931 8.106 8.106 0 0 1 8.07 0 7.533 7.533 0 0 1 2.795 2.931 8.875 8.875 0 0 1 0 8.192 7.504 7.504 0 0 1-2.794 2.93 8.105 8.105 0 0 1-8.071 0Zm6.654-1.926a5.18 5.18 0 0 0 1.942-2.017 6.844 6.844 0 0 0 0-6.159 5.202 5.202 0 0 0-1.942-2.017 5.12 5.12 0 0 0-2.617-.699 5.185 5.185 0 0 0-4.589 2.719 6.829 6.829 0 0 0 0 6.16 5.135 5.135 0 0 0 1.957 2.017 5.21 5.21 0 0 0 2.643.703 5.135 5.135 0 0 0 2.606-.707Z"/><path fill="#5F6368" d="M87.423 223.375a7.993 7.993 0 0 1-4.173-1.114 7.833 7.833 0 0 1-2.89-3.021 9.149 9.149 0 0 1 0-8.442 7.862 7.862 0 0 1 2.89-3.021 8.376 8.376 0 0 1 8.343 0 7.851 7.851 0 0 1 2.893 3.021 9.147 9.147 0 0 1 0 8.442 7.822 7.822 0 0 1-2.893 3.021 7.98 7.98 0 0 1-4.17 1.114Zm0-16.202a7.485 7.485 0 0 0-3.905 1.038 7.292 7.292 0 0 0-2.7 2.833 8.61 8.61 0 0 0 0 7.931 7.265 7.265 0 0 0 2.7 2.833 7.853 7.853 0 0 0 7.803 0 7.266 7.266 0 0 0 2.7-2.833 8.608 8.608 0 0 0 0-7.931 7.296 7.296 0 0 0-2.7-2.833 7.472 7.472 0 0 0-3.898-1.027v-.011Zm0 13.902a5.447 5.447 0 0 1-4.819-2.855 7.097 7.097 0 0 1 0-6.421 5.435 5.435 0 0 1 2.058-2.118 5.444 5.444 0 0 1 7.554 2.118 7.115 7.115 0 0 1 0 6.421 5.428 5.428 0 0 1-4.793 2.866v-.011Zm0-11.598a4.927 4.927 0 0 0-4.362 2.583 6.57 6.57 0 0 0 0 5.903 4.939 4.939 0 0 0 1.858 1.919 5.011 5.011 0 0 0 4.986 0 4.967 4.967 0 0 0 1.846-1.919 6.591 6.591 0 0 0 0-5.903 4.944 4.944 0 0 0-1.846-1.919 4.876 4.876 0 0 0-2.482-.653v-.011Zm13.77 12.572a7.508 7.508 0 0 1-2.795-2.93 8.876 8.876 0 0 1 0-8.192 7.525 7.525 0 0 1 2.795-2.931 8.107 8.107 0 0 1 8.071 0 7.522 7.522 0 0 1 2.795 2.931 8.876 8.876 0 0 1 0 8.192 7.485 7.485 0 0 1-2.795 2.93 8.104 8.104 0 0 1-8.071 0Zm6.655-1.926a5.194 5.194 0 0 0 1.945-2.017 6.848 6.848 0 0 0 0-6.16 5.212 5.212 0 0 0-1.945-2.016 5.121 5.121 0 0 0-2.618-.699 5.197 5.197 0 0 0-4.603 2.715 6.824 6.824 0 0 0 0 6.16 5.116 5.116 0 0 0 1.96 2.017 5.195 5.195 0 0 0 2.643.703 5.13 5.13 0 0 0 2.603-.703h.015Z"/><path fill="#5F6368" d="M105.219 223.375a7.995 7.995 0 0 1-4.154-1.114 7.84 7.84 0 0 1-2.893-3.022 9.141 9.141 0 0 1 0-8.441 7.864 7.864 0 0 1 2.893-3.021 8.368 8.368 0 0 1 8.339 0 7.855 7.855 0 0 1 2.893 3.021 9.15 9.15 0 0 1 0 8.441 7.816 7.816 0 0 1-2.893 3.022 7.974 7.974 0 0 1-4.185 1.114Zm0-16.202a7.469 7.469 0 0 0-3.901 1.038 7.298 7.298 0 0 0-2.7 2.833 8.608 8.608 0 0 0 0 7.931 7.275 7.275 0 0 0 2.7 2.833 7.85 7.85 0 0 0 7.803 0 7.294 7.294 0 0 0 2.7-2.833 8.63 8.63 0 0 0 0-7.931 7.33 7.33 0 0 0-2.7-2.833 7.479 7.479 0 0 0-3.902-1.027v-.011Zm0 13.902a5.444 5.444 0 0 1-4.819-2.855 7.083 7.083 0 0 1 0-6.421 5.407 5.407 0 0 1 2.058-2.118 5.533 5.533 0 0 1 5.507 0 5.461 5.461 0 0 1 2.039 2.118 7.093 7.093 0 0 1 0 6.421 5.513 5.513 0 0 1-2.039 2.119 5.42 5.42 0 0 1-2.746.747v-.011Zm0-11.598a4.925 4.925 0 0 0-4.362 2.583 6.575 6.575 0 0 0 0 5.903 4.914 4.914 0 0 0 1.862 1.919 5.01 5.01 0 0 0 4.985 0 4.95 4.95 0 0 0 1.847-1.919 6.566 6.566 0 0 0 0-5.903 4.937 4.937 0 0 0-1.847-1.919 4.866 4.866 0 0 0-2.485-.653v-.011Zm13.019 18.853a6.14 6.14 0 0 1-2.349-3.021l2.304-.986a4.58 4.58 0 0 0 1.692 2.137c.823.559 1.8.847 2.794.824a4.915 4.915 0 0 0 3.664-1.318 5.152 5.152 0 0 0 1.299-3.777v-1.703h-.121a5.599 5.599 0 0 1-2.107 1.888c-.954.5-2.017.752-3.093.733a6.628 6.628 0 0 1-3.603-1.028 7.251 7.251 0 0 1-2.588-2.874 9.666 9.666 0 0 1 0-8.388 7.22 7.22 0 0 1 2.588-2.889 6.6 6.6 0 0 1 3.603-1.027 6.428 6.428 0 0 1 3.093.732 5.492 5.492 0 0 1 2.107 1.926h.117v-2.183h2.421v14.65a7.364 7.364 0 0 1-2.043 5.632 8.424 8.424 0 0 1-9.793.672h.015Zm6.934-8.188a4.942 4.942 0 0 0 1.794-2.006c.47-.963.7-2.025.672-3.097a6.74 6.74 0 0 0-.672-3.127 4.85 4.85 0 0 0-1.794-1.986 4.883 4.883 0 0 0-5.008 0 4.933 4.933 0 0 0-1.809 2.001 6.693 6.693 0 0 0-.672 3.097 6.792 6.792 0 0 0 .672 3.112 4.704 4.704 0 0 0 4.321 2.686c.88.016 1.746-.22 2.496-.68Z"/><path fill="#5F6368" d="M122.675 229.848a7.715 7.715 0 0 1-4.592-1.303 6.422 6.422 0 0 1-2.444-3.15l-.075-.226 2.772-1.19.098.253a4.331 4.331 0 0 0 1.594 2.017 4.527 4.527 0 0 0 2.644.774 4.683 4.683 0 0 0 3.478-1.242 4.91 4.91 0 0 0 1.224-3.581v-1.065a6.143 6.143 0 0 1-1.843 1.492 6.732 6.732 0 0 1-3.218.755 6.899 6.899 0 0 1-3.739-1.068 7.564 7.564 0 0 1-2.682-2.973 9.932 9.932 0 0 1 0-8.63 7.508 7.508 0 0 1 2.682-2.987 6.872 6.872 0 0 1 3.739-1.069 6.74 6.74 0 0 1 3.218.755 5.993 5.993 0 0 1 1.843 1.511v-1.786h2.942v14.918a7.658 7.658 0 0 1-2.115 5.797 7.744 7.744 0 0 1-5.526 1.998Zm-6.458-4.396a6 6 0 0 0 2.172 2.666 7.05 7.05 0 0 0 7.685.689 7.06 7.06 0 0 0 3.724-6.758v-14.385h-1.888v2.183h-.525l-.075-.121a5.268 5.268 0 0 0-2.013-1.836 6.195 6.195 0 0 0-2.969-.702 6.362 6.362 0 0 0-3.463.989 6.99 6.99 0 0 0-2.493 2.787 9.418 9.418 0 0 0 0 8.147 7.043 7.043 0 0 0 2.496 2.772 6.395 6.395 0 0 0 3.464.986 6.166 6.166 0 0 0 2.968-.699 5.383 5.383 0 0 0 2.013-1.809l.076-.121h.525v1.964a5.415 5.415 0 0 1-1.375 3.947 5.183 5.183 0 0 1-3.848 1.397 5.044 5.044 0 0 1-2.943-.868 4.836 4.836 0 0 1-1.68-2.01l-1.851.782Zm6.458-4.366a4.963 4.963 0 0 1-4.551-2.829 7.075 7.075 0 0 1-.702-3.233 6.981 6.981 0 0 1 .702-3.217 5.191 5.191 0 0 1 1.889-2.104 5.15 5.15 0 0 1 5.287 0 5.18 5.18 0 0 1 1.889 2.092 7.085 7.085 0 0 1 .698 3.248 6.997 6.997 0 0 1-.698 3.218 5.29 5.29 0 0 1-1.889 2.108c-.79.481-1.699.73-2.625.717Zm0-11.598a4.457 4.457 0 0 0-2.371.657 4.708 4.708 0 0 0-1.715 1.888 6.48 6.48 0 0 0-.646 2.976 6.58 6.58 0 0 0 .646 2.995c.366.771.946 1.42 1.671 1.87a4.448 4.448 0 0 0 2.415.672 4.387 4.387 0 0 0 2.357-.657 4.74 4.74 0 0 0 1.7-1.888c.449-.927.67-1.947.645-2.977a6.546 6.546 0 0 0-.645-3.021 4.644 4.644 0 0 0-1.7-1.888 4.459 4.459 0 0 0-2.357-.627Zm11.123-8.245h2.542v21.407h-2.542v-21.407Z"/><path fill="#5F6368" d="M136.6 222.91h-3.063v-21.927h3.063v21.927Zm-2.541-.521h2.016v-20.87h-2.016v20.87Zm8.912-.306a7.282 7.282 0 0 1-2.704-2.885 8.72 8.72 0 0 1-.97-4.155 9.089 9.089 0 0 1 .91-4.067 7.379 7.379 0 0 1 2.587-2.957 6.896 6.896 0 0 1 3.886-1.107 7.345 7.345 0 0 1 3.887 1.001 6.649 6.649 0 0 1 2.526 2.765 8.902 8.902 0 0 1 .884 4.033c.003.261-.027.521-.091.774h-12.048a6.048 6.048 0 0 0 .835 2.931 4.866 4.866 0 0 0 1.888 1.794 5.151 5.151 0 0 0 2.406.597 4.965 4.965 0 0 0 4.532-2.75l2.153 1.046a7.634 7.634 0 0 1-2.674 2.931 8.071 8.071 0 0 1-7.999.03l-.008.019Zm8.309-8.686a4.977 4.977 0 0 0-.54-1.915 4.09 4.09 0 0 0-1.51-1.613 4.731 4.731 0 0 0-2.588-.657 4.301 4.301 0 0 0-3.021 1.133 5.542 5.542 0 0 0-1.628 3.022l9.287.03Z"/><path fill="#5F6368" d="M146.892 223.375a7.732 7.732 0 0 1-4.053-1.084 7.562 7.562 0 0 1-2.802-2.987 9.03 9.03 0 0 1-1.001-4.264 9.41 9.41 0 0 1 .937-4.181 7.658 7.658 0 0 1 2.677-3.063 7.177 7.177 0 0 1 4.03-1.133 7.606 7.606 0 0 1 4.023 1.042 6.937 6.937 0 0 1 2.624 2.871 9.21 9.21 0 0 1 .911 4.154c.004.285-.031.57-.102.846l-.053.189h-11.965a5.66 5.66 0 0 0 .778 2.53 4.614 4.614 0 0 0 1.798 1.703c.705.374 1.49.569 2.288.571a4.69 4.69 0 0 0 4.287-2.621l.121-.208 2.617 1.269-.128.242a7.977 7.977 0 0 1-2.765 3.021 7.73 7.73 0 0 1-4.222 1.103Zm-3.777-1.53a7.805 7.805 0 0 0 7.72-.026 7.425 7.425 0 0 0 2.455-2.595l-1.692-.823a5.169 5.169 0 0 1-4.616 2.674 5.45 5.45 0 0 1-2.526-.627 5.155 5.155 0 0 1-2.002-1.888 6.33 6.33 0 0 1-.876-3.056v-.276h12.097c.028-.169.041-.341.041-.513a8.694 8.694 0 0 0-.853-3.92 6.413 6.413 0 0 0-2.429-2.644 7.108 7.108 0 0 0-3.75-.963 6.655 6.655 0 0 0-3.743 1.065 7.174 7.174 0 0 0-2.496 2.855 8.87 8.87 0 0 0-.884 3.951 8.495 8.495 0 0 0 .94 4.014 7.042 7.042 0 0 0 2.61 2.784l.004-.012Zm8.456-8.184h-9.906l.064-.317a5.822 5.822 0 0 1 1.707-3.173 4.577 4.577 0 0 1 3.21-1.22 5.003 5.003 0 0 1 2.727.699 4.322 4.322 0 0 1 1.601 1.719c.322.626.515 1.31.567 2.013l.03.279Zm-9.249-.521h8.686a4.859 4.859 0 0 0-.483-1.537 3.84 3.84 0 0 0-1.413-1.511 4.514 4.514 0 0 0-2.447-.616 4.064 4.064 0 0 0-2.855 1.081 5.193 5.193 0 0 0-1.492 2.594l.004-.011Zm20.863-11.897h7.206a6.996 6.996 0 0 1 3.32.809 6.34 6.34 0 0 1 2.436 2.266 6.32 6.32 0 0 1 0 6.548 6.358 6.358 0 0 1-2.436 2.267 6.984 6.984 0 0 1-3.32.808h-4.695v8.728h-2.511v-21.426Zm7.266 10.262a3.894 3.894 0 0 0 2.108-.567 4.085 4.085 0 0 0 1.42-1.465 3.751 3.751 0 0 0 0-3.777 4.085 4.085 0 0 0-1.42-1.465 3.904 3.904 0 0 0-2.108-.571h-4.755v7.845h4.755Z"/><path fill="#5F6368" d="M165.957 222.911h-3.021v-21.928h7.466a7.278 7.278 0 0 1 3.445.838 6.602 6.602 0 0 1 2.534 2.349 6.59 6.59 0 0 1 0 6.825 6.616 6.616 0 0 1-2.534 2.349 7.267 7.267 0 0 1-3.445.839h-4.445v8.728Zm-2.512-.522h1.979v-8.728h4.956a6.77 6.77 0 0 0 3.198-.774 6.137 6.137 0 0 0 2.338-2.168 6.075 6.075 0 0 0 0-6.269 6.137 6.137 0 0 0-2.338-2.168 6.794 6.794 0 0 0-3.198-.774h-6.935v20.881Zm1.979-10.631v-8.351h5.02a4.214 4.214 0 0 1 2.247.608 4.38 4.38 0 0 1 1.511 1.564 3.994 3.994 0 0 1 0 4.022 4.333 4.333 0 0 1-1.511 1.556 4.152 4.152 0 0 1-2.236.601h-5.031Zm.533-.521h4.494a3.655 3.655 0 0 0 1.968-.529 3.873 3.873 0 0 0 1.333-1.371 3.488 3.488 0 0 0 0-3.509 3.915 3.915 0 0 0-1.333-1.374 3.684 3.684 0 0 0-1.968-.529h-4.494v7.312Zm16.214 11.235a4.93 4.93 0 0 1-2.036-1.809 4.846 4.846 0 0 1-.714-2.617 4.451 4.451 0 0 1 1.824-3.777 7.485 7.485 0 0 1 4.604-1.359c.862-.007 1.72.093 2.557.298.633.14 1.243.372 1.809.687v-.929a3.433 3.433 0 0 0-1.197-2.738 4.446 4.446 0 0 0-3.021-1.031 5.086 5.086 0 0 0-2.365.555 4.278 4.278 0 0 0-1.703 1.537l-1.915-1.435a6.119 6.119 0 0 1 2.466-2.153 7.749 7.749 0 0 1 3.483-.778 6.965 6.965 0 0 1 4.887 1.628 5.742 5.742 0 0 1 1.779 4.438v9.657h-2.421v-2.179h-.121a5.474 5.474 0 0 1-1.972 1.888 5.718 5.718 0 0 1-2.961.774 6.606 6.606 0 0 1-2.983-.657Zm5.62-2.243a4.99 4.99 0 0 0 1.763-1.764 4.644 4.644 0 0 0 .657-2.421 6.393 6.393 0 0 0-1.763-.778 8.084 8.084 0 0 0-2.214-.298 4.865 4.865 0 0 0-3.149.869 2.752 2.752 0 0 0-1.062 2.239 2.49 2.49 0 0 0 .956 2.032c.69.536 1.547.812 2.421.778a4.598 4.598 0 0 0 2.391-.657Z"/><path fill="#5F6368" d="M185.162 223.375a6.86 6.86 0 0 1-3.108-.687 5.213 5.213 0 0 1-2.138-1.889 5.143 5.143 0 0 1-.755-2.757 4.722 4.722 0 0 1 1.926-3.992 7.798 7.798 0 0 1 4.762-1.412c.883-.007 1.764.096 2.621.306a8.19 8.19 0 0 1 1.485.502v-.491a3.16 3.16 0 0 0-1.107-2.538 4.202 4.202 0 0 0-2.848-.967 4.823 4.823 0 0 0-2.239.525 4.054 4.054 0 0 0-1.605 1.446l-.152.238-2.334-1.752.133-.204a6.393 6.393 0 0 1 2.568-2.243 8.035 8.035 0 0 1 3.599-.805 7.238 7.238 0 0 1 5.065 1.7 5.996 5.996 0 0 1 1.865 4.63v9.918h-2.942v-1.779a6.065 6.065 0 0 1-1.699 1.446 6 6 0 0 1-3.097.805Zm.687-10.224a7.262 7.262 0 0 0-4.437 1.322 4.147 4.147 0 0 0-1.719 3.573 4.6 4.6 0 0 0 .676 2.477 4.663 4.663 0 0 0 1.926 1.711c.896.432 1.88.648 2.874.631a5.496 5.496 0 0 0 2.825-.755 5.255 5.255 0 0 0 1.889-1.79l.075-.129h.518v2.179h1.888v-9.377a5.496 5.496 0 0 0-1.696-4.245 6.736 6.736 0 0 0-4.709-1.56 7.511 7.511 0 0 0-3.365.755 5.927 5.927 0 0 0-2.225 1.858l1.511 1.133a4.62 4.62 0 0 1 1.647-1.397 5.37 5.37 0 0 1 2.481-.582 4.733 4.733 0 0 1 3.191 1.096c.421.361.755.813.977 1.321.223.507.33 1.059.311 1.613v1.397l-.4-.249a6.48 6.48 0 0 0-1.738-.657 10.215 10.215 0 0 0-2.5-.298v-.027Zm-.449 7.984a3.982 3.982 0 0 1-2.587-.838 2.745 2.745 0 0 1-1.05-2.21 3.019 3.019 0 0 1 1.155-2.443 5.154 5.154 0 0 1 3.32-.925 8.325 8.325 0 0 1 2.285.306 6.593 6.593 0 0 1 1.839.812l.118.075v.14a4.948 4.948 0 0 1-.695 2.557 5.293 5.293 0 0 1-1.859 1.858 4.887 4.887 0 0 1-2.526.68v-.012Zm.834-5.918a4.67 4.67 0 0 0-2.987.808 2.498 2.498 0 0 0-.967 2.04 2.232 2.232 0 0 0 .861 1.828c.649.496 1.45.75 2.266.717a4.364 4.364 0 0 0 2.266-.619 4.79 4.79 0 0 0 1.674-1.673 4.45 4.45 0 0 0 .619-2.149 6.244 6.244 0 0 0-1.571-.669 7.917 7.917 0 0 0-2.161-.272v-.011Zm9.51-7.577h2.425v2.425h.121a4.15 4.15 0 0 1 1.824-2.092 5.51 5.51 0 0 1 2.814-.756 5.75 5.75 0 0 1 1.103.091v2.602a6.35 6.35 0 0 0-1.375-.121 4.161 4.161 0 0 0-3.154 1.285 4.69 4.69 0 0 0-1.212 3.35v8.459h-2.542l-.004-15.243Zm15.485 15.183a3.898 3.898 0 0 1-1.333-.819 3.773 3.773 0 0 1-.899-1.341 5.05 5.05 0 0 1-.298-1.858v-9.102h-2.644v-2.304h2.644v-4.302h2.538v4.302h3.708v2.304h-3.708v8.494a3.056 3.056 0 0 0 .479 1.888 2.033 2.033 0 0 0 1.643.672 3.101 3.101 0 0 0 1.673-.51v2.482a3.866 3.866 0 0 1-.914.298 6.367 6.367 0 0 1-1.178.091 4.75 4.75 0 0 1-1.722-.295h.011Z"/><path fill="#5F6368" d="M212.94 223.39a5.1 5.1 0 0 1-1.813-.321 4.237 4.237 0 0 1-1.42-.88 4.071 4.071 0 0 1-.959-1.431 5.327 5.327 0 0 1-.317-1.953v-8.838h-2.644v-2.825h2.644v-4.305h3.059v4.302h3.709v2.825h-3.709v8.233a2.835 2.835 0 0 0 .423 1.733 1.77 1.77 0 0 0 1.439.575 2.855 2.855 0 0 0 1.533-.469l.401-.253v3.124l-.152.071c-.31.145-.637.252-.974.318a6.56 6.56 0 0 1-1.22.094Zm-6.643-13.948h2.644v9.363a4.882 4.882 0 0 0 .279 1.76c.186.472.47.898.835 1.25.36.332.782.589 1.242.755.519.195 1.07.293 1.624.287.38.007.759-.022 1.133-.086.241-.047.477-.117.703-.212v-1.866a3.293 3.293 0 0 1-1.413.325 2.264 2.264 0 0 1-1.843-.755 3.26 3.26 0 0 1-.54-2.062v-8.759h3.709v-1.782h-3.709v-4.302h-2.017v4.302h-2.643l-.004 1.782Zm-7.746 13.706h-3.067V207.38h2.946v1.836a4.474 4.474 0 0 1 1.552-1.469 5.771 5.771 0 0 1 2.942-.786 6.31 6.31 0 0 1 1.156.091l.208.045v3.146l-.321-.075a6.047 6.047 0 0 0-1.315-.114 3.858 3.858 0 0 0-2.964 1.201 4.463 4.463 0 0 0-1.133 3.169l-.004 8.724Zm-2.542-.521h2.021v-8.199a4.966 4.966 0 0 1 1.28-3.532 4.415 4.415 0 0 1 3.346-1.363c.372-.004.745.018 1.114.064v-2.066a6.406 6.406 0 0 0-.842-.049 5.297 5.297 0 0 0-2.682.714 3.857 3.857 0 0 0-1.71 1.964l-.068.166h-.559v-2.424h-1.889l-.011 14.725Zm21.818-15.228h2.425v2.248h.117a5.141 5.141 0 0 1 2.001-1.93 5.798 5.798 0 0 1 2.931-.793 5.38 5.38 0 0 1 4.2 1.601 6.237 6.237 0 0 1 1.45 4.351v9.774h-2.541v-9.389a4.061 4.061 0 0 0-1.016-3.078 3.897 3.897 0 0 0-2.78-.956 3.706 3.706 0 0 0-2.198.688 4.598 4.598 0 0 0-1.511 1.809 5.341 5.341 0 0 0-.54 2.349v8.577h-2.538v-15.251Z"/><path fill="#5F6368" d="M231.227 222.91h-3.067v-9.649a3.85 3.85 0 0 0-.933-2.89 3.669 3.669 0 0 0-2.602-.883 3.466 3.466 0 0 0-2.047.638 4.384 4.384 0 0 0-1.424 1.707 5.122 5.122 0 0 0-.513 2.236v8.841h-3.063v-15.775h2.946v1.816a5.856 5.856 0 0 1 1.729-1.465 6.082 6.082 0 0 1 3.06-.827 5.663 5.663 0 0 1 4.392 1.684 6.51 6.51 0 0 1 1.511 4.532l.011 10.035Zm-2.542-.521h2.021v-9.514a6.01 6.01 0 0 0-1.382-4.177 5.154 5.154 0 0 0-4.008-1.51c-.983 0-1.948.26-2.798.755a4.907 4.907 0 0 0-1.889 1.828l-.071.136h-.537v-2.244h-1.888v14.73h2.017v-8.309a5.623 5.623 0 0 1 .566-2.463 4.921 4.921 0 0 1 1.594-1.907 3.998 3.998 0 0 1 2.349-.733 4.156 4.156 0 0 1 2.961 1.028 4.327 4.327 0 0 1 1.099 3.267l-.034 9.113Zm8.796-.306a7.275 7.275 0 0 1-2.704-2.885 8.758 8.758 0 0 1-.971-4.154 9.107 9.107 0 0 1 .914-4.068 7.358 7.358 0 0 1 2.584-2.957 6.901 6.901 0 0 1 3.89-1.107 7.33 7.33 0 0 1 3.886 1.001 6.65 6.65 0 0 1 2.527 2.765 8.93 8.93 0 0 1 .883 4.033c.004.261-.027.521-.09.774h-12.048a5.994 5.994 0 0 0 .838 2.931 4.862 4.862 0 0 0 1.889 1.794 5.133 5.133 0 0 0 2.406.597 4.968 4.968 0 0 0 2.664-.718 4.966 4.966 0 0 0 1.868-2.032l2.156 1.047a7.684 7.684 0 0 1-2.677 2.93 8.06 8.06 0 0 1-8 .031l-.015.018Zm8.309-8.686a5.012 5.012 0 0 0-.54-1.915 4.078 4.078 0 0 0-1.511-1.613 4.726 4.726 0 0 0-2.587-.657 4.297 4.297 0 0 0-3.021 1.133 5.547 5.547 0 0 0-1.632 3.022l9.291.03Z"/><path fill="#5F6368" d="M241.398 223.375a7.718 7.718 0 0 1-4.049-1.084 7.535 7.535 0 0 1-2.802-2.987 9.033 9.033 0 0 1-1.005-4.264 9.381 9.381 0 0 1 .941-4.181 7.629 7.629 0 0 1 2.674-3.063 7.169 7.169 0 0 1 4.033-1.133 7.6 7.6 0 0 1 4.022 1.042 6.908 6.908 0 0 1 2.625 2.871 9.208 9.208 0 0 1 .91 4.154c.004.285-.029.569-.098.846l-.053.193h-11.968a5.58 5.58 0 0 0 .778 2.53 4.608 4.608 0 0 0 1.798 1.703 4.905 4.905 0 0 0 2.284.571 4.68 4.68 0 0 0 4.287-2.621l.125-.208 2.617 1.269-.128.242a8.023 8.023 0 0 1-2.765 3.021 7.741 7.741 0 0 1-4.226 1.099Zm-3.777-1.53a7.802 7.802 0 0 0 7.72-.026 7.478 7.478 0 0 0 2.455-2.595l-1.692-.823a5.173 5.173 0 0 1-4.616 2.674 5.426 5.426 0 0 1-2.526-.627 5.17 5.17 0 0 1-2.002-1.888 6.315 6.315 0 0 1-.876-3.056v-.276H248.2c.028-.169.042-.341.041-.513a8.723 8.723 0 0 0-.853-3.92 6.439 6.439 0 0 0-2.429-2.644 7.097 7.097 0 0 0-3.75-.963 6.655 6.655 0 0 0-3.743 1.065 7.117 7.117 0 0 0-2.496 2.855 8.873 8.873 0 0 0-.888 3.954 8.512 8.512 0 0 0 .944 4.015 7.032 7.032 0 0 0 2.61 2.783l-.015-.015Zm8.456-8.184h-9.902l.064-.317a5.806 5.806 0 0 1 1.707-3.173 4.568 4.568 0 0 1 3.21-1.219 5.002 5.002 0 0 1 2.727.698 4.329 4.329 0 0 1 1.601 1.719c.323.626.517 1.31.571 2.013l.022.279Zm-9.249-.521h8.686a4.859 4.859 0 0 0-.483-1.537 3.848 3.848 0 0 0-1.416-1.511 4.501 4.501 0 0 0-2.448-.615 4.059 4.059 0 0 0-2.855 1.08 5.213 5.213 0 0 0-1.488 2.594l.004-.011Zm14.586-5.741h2.424v2.452h.121a4.183 4.183 0 0 1 1.734-2.093 4.866 4.866 0 0 1 2.693-.834 4.46 4.46 0 0 1 1.797.328v2.723a4.774 4.774 0 0 0-2.156-.479 3.545 3.545 0 0 0-2.032.63 4.495 4.495 0 0 0-1.481 1.696 4.876 4.876 0 0 0-.555 2.289v8.543h-2.542l-.003-15.255Z"/><path fill="#5F6368" d="M254.22 222.911h-3.067v-15.776h2.946v1.828a4.767 4.767 0 0 1 1.45-1.427 5.15 5.15 0 0 1 2.833-.88 4.716 4.716 0 0 1 1.888.351l.159.068v3.316l-.378-.189a4.527 4.527 0 0 0-2.039-.453 3.286 3.286 0 0 0-1.889.585 4.245 4.245 0 0 0-1.393 1.598c-.35.67-.53 1.415-.525 2.171l.015 8.808Zm-2.542-.521h2.021v-8.283a5.153 5.153 0 0 1 .581-2.409 4.823 4.823 0 0 1 1.564-1.791 3.819 3.819 0 0 1 2.179-.676 5.18 5.18 0 0 1 1.888.34v-2.145a4.414 4.414 0 0 0-1.533-.242 4.634 4.634 0 0 0-2.546.793 3.947 3.947 0 0 0-1.631 1.961l-.061.173h-.562v-2.447h-1.889l-.011 14.726Z"/></svg>