<svg xmlns="http://www.w3.org/2000/svg" width="314" height="314" fill="none"><rect width="308.673" height="308.673" x="2.659" y="2.286" fill="#fff" stroke="#E0E0E0" stroke-width="4.573" rx="52.045"/><path fill="#474747" d="M65.127 291.755a6.18 6.18 0 0 1-2.256-.402 5.42 5.42 0 0 1-1.792-1.159 5.409 5.409 0 0 1-1.19-1.746 5.662 5.662 0 0 1-.417-2.194c0-.793.139-1.525.417-2.194a5.409 5.409 0 0 1 1.19-1.746 5.398 5.398 0 0 1 1.808-1.144 5.983 5.983 0 0 1 2.256-.417c.783 0 1.52.134 2.21.402.69.257 1.272.649 1.745 1.174l-.726.726a3.941 3.941 0 0 0-1.468-.973 4.78 4.78 0 0 0-1.73-.309c-.65 0-1.252.113-1.808.34-.557.216-1.04.53-1.453.942a4.425 4.425 0 0 0-.973 1.422 4.516 4.516 0 0 0-.34 1.777c0 .649.113 1.246.34 1.792.237.536.561 1.01.973 1.422.412.402.896.716 1.453.943a4.952 4.952 0 0 0 1.808.324 4.78 4.78 0 0 0 1.73-.309 4.114 4.114 0 0 0 1.468-.989l.726.726a4.505 4.505 0 0 1-1.746 1.19 6.093 6.093 0 0 1-2.225.402Zm8.974-6.073h5.717v.974h-5.717v-.974Zm.124 4.991h6.505v.989h-7.65v-10.816h7.417v.989h-6.273v8.838Zm10.738.989v-10.816h4.048c.917 0 1.705.149 2.364.448.66.288 1.164.711 1.515 1.267.36.546.54 1.21.54 1.993 0 .763-.18 1.422-.54 1.978-.35.546-.855.968-1.515 1.267-.659.289-1.447.433-2.364.433h-3.415l.51-.526v3.956h-1.143Zm7.386 0-2.782-3.925h1.237l2.796 3.925h-1.25Zm-6.243-3.863-.51-.541h3.384c1.082 0 1.9-.237 2.457-.71.567-.474.85-1.139.85-1.994 0-.865-.283-1.535-.85-2.009-.556-.473-1.375-.71-2.457-.71h-3.384l.51-.541v6.505Zm13.519 3.863v-9.827h-3.801v-.989h8.746v.989h-3.802v9.827h-1.143Zm8.316 0v-10.816h1.144v10.816h-1.144Zm7.228-5.578h5.717v.989h-5.717v-.989Zm.124 5.578h-1.144v-10.816h7.417v.989h-6.273v9.827Zm10.18 0v-10.816h1.143v10.816h-1.143Zm7.227-5.98h5.718v.974H132.7v-.974Zm.124 4.991h6.505v.989h-7.648v-10.816h7.416v.989h-6.273v8.838Zm10.738.989v-10.816h4.404c1.154 0 2.163.232 3.029.695a4.98 4.98 0 0 1 2.039 1.901c.484.814.726 1.751.726 2.812s-.242 1.998-.726 2.812a5.082 5.082 0 0 1-2.039 1.916c-.866.453-1.875.68-3.029.68h-4.404Zm1.144-.989h3.198c.958 0 1.787-.185 2.488-.556a4.156 4.156 0 0 0 1.653-1.561c.392-.669.588-1.437.588-2.302 0-.876-.196-1.643-.588-2.302a4.054 4.054 0 0 0-1.653-1.546c-.701-.381-1.53-.571-2.488-.571h-3.198v8.838Zm23.454 1.082a6.179 6.179 0 0 1-2.256-.402 5.413 5.413 0 0 1-1.792-1.159 5.397 5.397 0 0 1-1.19-1.746 5.664 5.664 0 0 1-.417-2.194c0-.793.139-1.525.417-2.194a5.397 5.397 0 0 1 1.19-1.746 5.395 5.395 0 0 1 1.807-1.144 5.989 5.989 0 0 1 2.256-.417c.783 0 1.52.134 2.21.402.69.257 1.272.649 1.746 1.174l-.726.726a3.94 3.94 0 0 0-1.468-.973 4.784 4.784 0 0 0-1.731-.309c-.649 0-1.251.113-1.808.34-.556.216-1.04.53-1.452.942a4.41 4.41 0 0 0-.973 1.422 4.51 4.51 0 0 0-.34 1.777c0 .649.113 1.246.34 1.792.236.536.561 1.01.973 1.422.412.402.896.716 1.452.943a4.955 4.955 0 0 0 1.808.324c.618 0 1.195-.103 1.731-.309a4.112 4.112 0 0 0 1.468-.989l.726.726a4.507 4.507 0 0 1-1.746 1.19 6.093 6.093 0 0 1-2.225.402Zm12.456 0a6.308 6.308 0 0 1-2.272-.402 5.61 5.61 0 0 1-1.808-1.159 5.658 5.658 0 0 1-1.189-1.746 5.664 5.664 0 0 1-.418-2.194c0-.793.14-1.519.418-2.179a5.431 5.431 0 0 1 1.189-1.746 5.294 5.294 0 0 1 1.808-1.159 6.031 6.031 0 0 1 2.272-.417c.814 0 1.566.139 2.256.417.69.268 1.287.649 1.792 1.144a5.1 5.1 0 0 1 1.19 1.746c.288.669.433 1.401.433 2.194 0 .793-.145 1.525-.433 2.194a5.1 5.1 0 0 1-1.19 1.746 5.423 5.423 0 0 1-1.792 1.159 6.179 6.179 0 0 1-2.256.402Zm0-1.02c.649 0 1.246-.108 1.792-.324a4.309 4.309 0 0 0 1.437-.943c.412-.412.732-.886.958-1.422.227-.546.34-1.143.34-1.792a4.51 4.51 0 0 0-.34-1.777 4.219 4.219 0 0 0-.958-1.422 4.009 4.009 0 0 0-1.437-.942 4.621 4.621 0 0 0-1.792-.34c-.649 0-1.252.113-1.808.34a4.162 4.162 0 0 0-1.453.942 4.567 4.567 0 0 0-.958 1.422 4.528 4.528 0 0 0-.34 1.777 4.6 4.6 0 0 0 .34 1.777c.237.546.557 1.025.958 1.437.412.402.897.716 1.453.943a4.951 4.951 0 0 0 1.808.324Zm9.779.927v-10.816h.942l4.945 8.437h-.495l4.899-8.437h.942v10.816h-1.097v-9.101h.263l-4.512 7.726h-.541l-4.543-7.726h.294v9.101h-1.097Zm16.303 0v-10.816h4.048c.917 0 1.705.149 2.364.448.66.288 1.164.711 1.515 1.267.36.546.54 1.21.54 1.993 0 .763-.18 1.422-.54 1.978-.351.546-.855.968-1.515 1.267-.659.299-1.447.448-2.364.448h-3.415l.51-.541v3.956h-1.143Zm1.143-3.863-.51-.556h3.384c1.082 0 1.901-.232 2.457-.695.567-.474.85-1.139.85-1.994 0-.865-.283-1.535-.85-2.009-.556-.473-1.375-.71-2.457-.71h-3.384l.51-.541v6.505Zm9.068 3.863 4.945-10.816h1.128l4.944 10.816h-1.205l-4.543-10.152h.464l-4.543 10.152h-1.19Zm1.947-2.889.34-.928h6.289l.34.928h-6.969Zm12.405 2.889v-10.816h.942l7.464 9.395h-.495v-9.395h1.128v10.816h-.942l-7.448-9.395h.494v9.395h-1.143Zm16.695 0v-4.017l.263.71-4.589-7.509h1.22l4.033 6.598h-.649l4.033-6.598h1.144l-4.589 7.509.262-.71v4.017h-1.128Z"/><path fill="#007FF8" d="M93.246 114.323c-5.611 0-10 4.223-13.974 9.594-5.454-6.949-10.015-9.594-15.477-9.594-11.131 0-19.66 14.486-19.66 29.848 0 9.594 4.637 15.651 12.396 15.651 5.603 0 9.627-2.645 16.783-15.147l5.033-8.9c.719 1.165 1.47 2.413 2.272 3.752l3.355 5.644c6.536 10.94 10.18 14.651 16.775 14.651 7.577 0 11.792-6.14 11.792-15.932.016-16.081-8.702-29.567-19.295-29.567Zm-25.377 26.939c-5.785 9.09-7.81 11.131-11.032 11.131-3.223 0-5.305-2.917-5.305-8.123 0-11.131 5.553-22.518 12.172-22.518 3.578 0 6.61 2.074 11.164 8.635-4.355 6.685-7 10.875-7 10.875Zm21.898-1.149-4.008-6.685a246.005 246.005 0 0 0-3.132-4.875c3.611-5.578 6.61-8.363 10.148-8.363 7.362 0 13.221 10.858 13.221 24.179 0 5.082-1.653 8.032-5.115 8.032-3.264.033-4.842-2.19-11.114-12.288Z"/><path fill="#1C2B33" d="M126.968 115.794h8.553l14.544 26.302 14.535-26.302h8.371v43.251h-6.983v-33.161l-12.75 22.939h-6.528l-12.767-22.939v33.161h-6.975v-43.251Zm68.496 43.986a16.58 16.58 0 0 1-8.52-2.14 15.071 15.071 0 0 1-5.726-5.942 17.999 17.999 0 0 1-2.049-8.709 18.676 18.676 0 0 1 1.999-8.801 14.994 14.994 0 0 1 5.578-5.983 15.447 15.447 0 0 1 8.197-2.165 13.555 13.555 0 0 1 13.024 8.264 21.936 21.936 0 0 1 1.793 9.205v1.909h-23.675a10.289 10.289 0 0 0 3.198 6.223 9.331 9.331 0 0 0 6.437 2.272 14.056 14.056 0 0 0 5.371-.934 13.574 13.574 0 0 0 4.231-2.809l3.702 4.545a19.326 19.326 0 0 1-13.56 5.065Zm5.099-25.617a7.683 7.683 0 0 0-5.785-2.239 7.946 7.946 0 0 0-5.784 2.281 10.735 10.735 0 0 0-2.95 6.148h17.022a9.61 9.61 0 0 0-2.495-6.206l-.008.016Zm17.667-1.635h-6.429v-5.71h6.429v-9.454h6.726v9.454h9.751v5.718h-9.751v14.469c0 2.402.411 4.121 1.232 5.157.82 1.035 2.231 1.548 4.231 1.537.753.008 1.506-.028 2.255-.108.62-.066 1.298-.165 2.033-.289v5.644c-.842.246-1.701.434-2.57.562-.999.145-2.007.216-3.016.215-7.266 0-10.897-3.972-10.891-11.916v-15.279Zm51.555 26.517h-6.61v-4.504a11.919 11.919 0 0 1-4.479 3.9 13.468 13.468 0 0 1-6.173 1.372 13.315 13.315 0 0 1-7.545-2.173 14.876 14.876 0 0 1-5.172-5.991 19.388 19.388 0 0 1-1.884-8.718 19.056 19.056 0 0 1 1.917-8.735 14.783 14.783 0 0 1 5.288-5.958 14.06 14.06 0 0 1 7.768-2.165 13.374 13.374 0 0 1 5.925 1.281 11.675 11.675 0 0 1 4.355 3.595v-4.132h6.61v32.228Zm-6.734-20.932a9.149 9.149 0 0 0-3.413-4.338 9.346 9.346 0 0 0-5.388-1.587 8.743 8.743 0 0 0-6.883 2.893c-1.703 1.933-2.557 4.547-2.562 7.842-.006 3.294.821 5.916 2.479 7.866a8.328 8.328 0 0 0 6.702 2.909 9.849 9.849 0 0 0 5.553-1.653 9.002 9.002 0 0 0 3.52-4.321l-.008-9.611ZM43.919 202.204V181.41h7.27c1.448 0 2.643.25 3.584.751.94.494 1.64 1.161 2.101 2 .46.833.69 1.757.69 2.772 0 .894-.158 1.631-.477 2.214a3.706 3.706 0 0 1-1.238 1.38 5.638 5.638 0 0 1-1.655.752v.203c.636.04 1.276.264 1.919.67s1.18.988 1.614 1.746c.433.758.65 1.686.65 2.782 0 1.043-.237 1.98-.71 2.813-.475.832-1.223 1.492-2.245 1.98-1.022.487-2.352.731-3.99.731H43.92Zm2.518-2.234h4.995c1.645 0 2.813-.318 3.503-.955.697-.643 1.046-1.421 1.046-2.335 0-.704-.18-1.354-.538-1.949-.36-.603-.87-1.083-1.533-1.442-.664-.365-1.45-.548-2.356-.548h-5.117v7.229Zm0-9.422h4.67c.758 0 1.442-.149 2.051-.447a3.59 3.59 0 0 0 1.462-1.259c.366-.542.549-1.178.549-1.909 0-.914-.319-1.689-.955-2.325-.636-.643-1.645-.965-3.026-.965h-4.751v6.905Zm25.581 5.279v-9.219h2.396v15.596h-2.396v-2.64h-.163c-.365.792-.934 1.465-1.705 2.02-.772.548-1.747.823-2.925.823-.974 0-1.84-.214-2.599-.64-.758-.433-1.354-1.083-1.787-1.949-.433-.874-.65-1.974-.65-3.3v-9.91h2.397v9.747c0 1.137.318 2.044.954 2.721.643.677 1.462 1.016 2.457 1.016.596 0 1.201-.153 1.817-.457.623-.305 1.144-.772 1.564-1.401.427-.63.64-1.432.64-2.407Zm17.832-5.726-2.153.609a4.005 4.005 0 0 0-.6-1.046c-.256-.345-.608-.629-1.055-.853-.447-.223-1.019-.335-1.716-.335-.954 0-1.75.22-2.386.66-.63.434-.944.985-.944 1.655 0 .596.216 1.066.65 1.412.433.345 1.11.633 2.03.863l2.315.568c1.394.339 2.433.857 3.117 1.554.684.69 1.026 1.58 1.026 2.67a3.96 3.96 0 0 1-.772 2.396c-.508.704-1.218 1.259-2.132 1.665-.914.406-1.977.609-3.188.609-1.591 0-2.907-.345-3.95-1.035-1.042-.691-1.702-1.699-1.98-3.026l2.275-.568c.216.839.626 1.468 1.228 1.888.61.42 1.405.63 2.386.63 1.117 0 2.004-.237 2.66-.711.664-.481.995-1.056.995-1.726 0-.542-.19-.995-.568-1.361-.38-.372-.962-.65-1.747-.832l-2.599-.609c-1.428-.339-2.477-.863-3.147-1.574-.664-.718-.995-1.615-.995-2.691 0-.88.247-1.658.74-2.335.502-.677 1.182-1.208 2.042-1.594.866-.386 1.847-.579 2.944-.579 1.543 0 2.755.339 3.635 1.015.887.677 1.516 1.571 1.888 2.681Zm3.89 12.103v-15.596h2.397v15.596H93.74Zm1.219-18.195c-.467 0-.87-.159-1.208-.477a1.534 1.534 0 0 1-.498-1.148c0-.446.166-.829.498-1.147a1.704 1.704 0 0 1 1.208-.477c.467 0 .866.159 1.198.477.339.318.508.701.508 1.147 0 .447-.17.83-.508 1.148a1.669 1.669 0 0 1-1.198.477Zm7.963 8.813v9.382h-2.397v-15.596h2.315v2.437h.203a4.459 4.459 0 0 1 1.666-1.909c.744-.487 1.705-.731 2.883-.731 1.056 0 1.98.217 2.772.65.792.426 1.408 1.076 1.848 1.949.44.867.66 1.963.66 3.29v9.91h-2.396v-9.748c0-1.225-.319-2.179-.955-2.863-.636-.69-1.509-1.035-2.619-1.035-.765 0-1.449.165-2.051.497a3.568 3.568 0 0 0-1.412 1.452c-.345.636-.517 1.408-.517 2.315Zm20.867 9.706c-1.503 0-2.799-.331-3.889-.995-1.083-.67-1.919-1.604-2.507-2.802-.583-1.205-.874-2.606-.874-4.203 0-1.598.291-3.006.874-4.224.588-1.225 1.407-2.18 2.457-2.863 1.056-.691 2.287-1.036 3.695-1.036.813 0 1.615.136 2.407.406a5.959 5.959 0 0 1 2.162 1.32c.65.603 1.168 1.401 1.554 2.396.386.995.578 2.221.578 3.676v1.015h-12.021v-2.071h9.585c0-.88-.176-1.665-.528-2.356a3.977 3.977 0 0 0-1.483-1.634c-.636-.4-1.387-.599-2.254-.599-.954 0-1.78.237-2.477.71a4.68 4.68 0 0 0-1.594 1.828 5.372 5.372 0 0 0-.559 2.416v1.381c0 1.178.204 2.176.61 2.995.413.813.985 1.432 1.716 1.858.731.42 1.58.63 2.548.63.63 0 1.198-.088 1.706-.264a3.665 3.665 0 0 0 1.33-.812c.372-.366.66-.819.863-1.361l2.315.65a5.126 5.126 0 0 1-1.229 2.071c-.575.589-1.286 1.049-2.132 1.381-.846.325-1.797.487-2.853.487Zm21.149-12.427-2.152.609a4.021 4.021 0 0 0-.599-1.046c-.258-.345-.61-.629-1.056-.853-.447-.223-1.019-.335-1.716-.335-.955 0-1.75.22-2.386.66-.63.434-.944.985-.944 1.655 0 .596.216 1.066.649 1.412.434.345 1.11.633 2.031.863l2.315.568c1.394.339 2.433.857 3.117 1.554.684.69 1.025 1.58 1.025 2.67 0 .893-.257 1.692-.771 2.396-.508.704-1.219 1.259-2.132 1.665-.914.406-1.977.609-3.188.609-1.591 0-2.908-.345-3.95-1.035-1.042-.691-1.702-1.699-1.98-3.026l2.274-.568c.217.839.627 1.468 1.229 1.888.609.42 1.404.63 2.386.63 1.117 0 2.004-.237 2.66-.711.663-.481.995-1.056.995-1.726 0-.542-.189-.995-.568-1.361-.38-.372-.962-.65-1.747-.832l-2.599-.609c-1.428-.339-2.477-.863-3.148-1.574-.663-.718-.995-1.615-.995-2.691 0-.88.247-1.658.742-2.335.501-.677 1.181-1.208 2.04-1.594.867-.386 1.848-.579 2.945-.579 1.543 0 2.755.339 3.635 1.015.886.677 1.516 1.571 1.888 2.681Zm14.938 0-2.152.609a4.021 4.021 0 0 0-.599-1.046c-.258-.345-.61-.629-1.056-.853-.447-.223-1.019-.335-1.716-.335-.955 0-1.75.22-2.386.66-.63.434-.944.985-.944 1.655 0 .596.216 1.066.649 1.412.434.345 1.11.633 2.031.863l2.315.568c1.394.339 2.433.857 3.117 1.554.684.69 1.025 1.58 1.025 2.67 0 .893-.257 1.692-.771 2.396-.508.704-1.219 1.259-2.132 1.665-.914.406-1.977.609-3.189.609-1.59 0-2.907-.345-3.949-1.035-1.043-.691-1.702-1.699-1.98-3.026l2.274-.568c.217.839.626 1.468 1.229 1.888.609.42 1.404.63 2.386.63 1.117 0 2.003-.237 2.66-.711.663-.481.995-1.056.995-1.726 0-.542-.189-.995-.569-1.361-.379-.372-.961-.65-1.746-.832l-2.599-.609c-1.428-.339-2.478-.863-3.148-1.574-.663-.718-.995-1.615-.995-2.691 0-.88.247-1.658.742-2.335.5-.677 1.181-1.208 2.04-1.594.867-.386 1.848-.579 2.945-.579 1.543 0 2.755.339 3.635 1.015.886.677 1.516 1.571 1.888 2.681Zm12.258 12.103V181.41h7.026c1.631 0 2.964.294 4 .883 1.042.582 1.814 1.371 2.315 2.366.501.995.751 2.105.751 3.33s-.25 2.339-.751 3.34c-.494 1.002-1.259 1.801-2.295 2.397-1.035.589-2.362.883-3.98.883h-5.036v-2.234h4.955c1.117 0 2.014-.193 2.691-.578.677-.386 1.167-.908 1.472-1.564.311-.663.467-1.411.467-2.244 0-.833-.156-1.577-.467-2.234-.305-.656-.799-1.171-1.483-1.543-.683-.379-1.59-.569-2.721-.569h-4.426v18.561h-2.518Zm22.413.365c-.988 0-1.885-.186-2.691-.558a4.62 4.62 0 0 1-1.919-1.635c-.474-.718-.71-1.584-.71-2.599 0-.894.176-1.618.528-2.173a3.723 3.723 0 0 1 1.411-1.32 7.442 7.442 0 0 1 1.949-.711 23.674 23.674 0 0 1 2.163-.385 98.19 98.19 0 0 1 2.305-.275c.595-.067 1.029-.179 1.299-.335.278-.155.417-.426.417-.812v-.081c0-1.002-.275-1.78-.823-2.335-.541-.555-1.364-.833-2.467-.833-1.144 0-2.041.25-2.691.751-.649.501-1.106 1.036-1.37 1.605l-2.275-.813c.406-.947.948-1.685 1.625-2.213a6.08 6.08 0 0 1 2.234-1.117 9.255 9.255 0 0 1 2.396-.325c.501 0 1.076.061 1.726.183a5.513 5.513 0 0 1 1.898.721c.616.365 1.127.917 1.534 1.655.406.738.609 1.726.609 2.965v10.275h-2.396v-2.112h-.122c-.163.338-.433.7-.813 1.086-.379.386-.883.714-1.512.985-.63.271-1.398.406-2.305.406Zm.365-2.152c.948 0 1.747-.187 2.397-.559.656-.372 1.15-.853 1.482-1.442a3.676 3.676 0 0 0 .508-1.858v-2.193c-.102.122-.325.234-.671.335-.338.095-.731.18-1.177.254-.44.068-.87.129-1.29.183-.413.047-.748.088-1.005.122a9.101 9.101 0 0 0-1.746.396c-.535.176-.968.443-1.3.802-.325.352-.487.832-.487 1.442 0 .832.308 1.462.924 1.888.622.42 1.411.63 2.365.63Zm11.156 1.787v-15.596h2.315v2.356h.163c.284-.772.798-1.398 1.543-1.879.744-.48 1.584-.72 2.518-.72.176 0 .396.003.66.01.264.006.464.017.599.03v2.437a6.96 6.96 0 0 0-.559-.091 5.417 5.417 0 0 0-.903-.072c-.758 0-1.435.16-2.031.478a3.593 3.593 0 0 0-1.401 1.299c-.338.549-.508 1.175-.508 1.879v9.869h-2.396Zm18.398-15.596v2.031h-8.082v-2.031h8.082Zm-5.727-3.736h2.397v14.864c0 .677.098 1.185.294 1.523.203.332.46.555.772.67.318.109.653.163 1.005.163.264 0 .48-.014.65-.041l.406-.081.487 2.152a4.85 4.85 0 0 1-.68.183c-.291.068-.66.102-1.107.102-.677 0-1.34-.146-1.99-.437a3.947 3.947 0 0 1-1.604-1.33c-.42-.596-.63-1.347-.63-2.254v-15.514Zm11.727 9.95v9.382h-2.396v-15.596h2.315v2.437h.203a4.463 4.463 0 0 1 1.665-1.909c.745-.487 1.706-.731 2.884-.731 1.056 0 1.98.217 2.772.65.792.426 1.408 1.076 1.848 1.949.44.867.66 1.963.66 3.29v9.91h-2.397v-9.748c0-1.225-.318-2.179-.954-2.863-.636-.69-1.509-1.035-2.62-1.035-.764 0-1.448.165-2.05.497a3.562 3.562 0 0 0-1.412 1.452c-.345.636-.518 1.408-.518 2.315Zm20.868 9.706c-1.503 0-2.799-.331-3.889-.995-1.083-.67-1.919-1.604-2.508-2.802-.582-1.205-.873-2.606-.873-4.203 0-1.598.291-3.006.873-4.224.589-1.225 1.408-2.18 2.457-2.863 1.056-.691 2.288-1.036 3.696-1.036.812 0 1.615.136 2.406.406a5.971 5.971 0 0 1 2.163 1.32c.65.603 1.168 1.401 1.554 2.396.385.995.578 2.221.578 3.676v1.015H245.77v-2.071h9.585c0-.88-.176-1.665-.528-2.356a3.984 3.984 0 0 0-1.483-1.634c-.636-.4-1.387-.599-2.254-.599-.954 0-1.78.237-2.477.71a4.671 4.671 0 0 0-1.594 1.828 5.36 5.36 0 0 0-.559 2.416v1.381c0 1.178.203 2.176.609 2.995.413.813.985 1.432 1.716 1.858.731.42 1.581.63 2.549.63a5.19 5.19 0 0 0 1.706-.264 3.673 3.673 0 0 0 1.33-.812c.372-.366.66-.819.863-1.361l2.315.65a5.137 5.137 0 0 1-1.229 2.071c-.575.589-1.286 1.049-2.132 1.381-.846.325-1.797.487-2.853.487Zm10.102-.324v-15.596h2.315v2.356h.163c.284-.772.798-1.398 1.543-1.879.745-.48 1.584-.72 2.518-.72.176 0 .396.003.66.01.264.006.464.017.599.03v2.437a6.99 6.99 0 0 0-.558-.091 5.438 5.438 0 0 0-.904-.072c-.758 0-1.435.16-2.031.478a3.593 3.593 0 0 0-1.401 1.299c-.338.549-.508 1.175-.508 1.879v9.869h-2.396Z"/></svg>